<svg xmlns="http://www.w3.org/2000/svg" viewBox="0 0 100 100" fill="none">
  <g transform="translate(-5.2,-5.7) scale(4.6)">
    <path d="M20 13c0 5-3.5 7.5-7.66 8.95a1 1 0 0 1-.67-.01C7.5 20.5 4 18 4 13V6a1 1 0 0 1 1-1c2 0 4.5-1.2 6.24-2.72a1.17 1.17 0 0 1 1.52 0C14.51 3.81 17 5 19 5a1 1 0 0 1 1 1z" fill="#000000" stroke="#000000" stroke-width="0.43" stroke-linecap="round" stroke-linejoin="round"/>
  </g>
  <text x="50" y="54" text-anchor="middle" dominant-baseline="central" font-family="'Helvetica Neue', Helvetica, Arial, sans-serif" font-size="13" font-weight="700" fill="#ffffff" letter-spacing="0.5">Protocol</text>
</svg>
